<?xml version="1.0" encoding="UTF-8"?>
<svg xmlns="http://www.w3.org/2000/svg" viewBox="0 0 391 118.6" role="img" aria-label="bukio">
  <title>bukio</title>
  <path fill="#282828" transform="translate(-9.1 12.0)" d="M52.57 100.57Q42.71 100.57 34.79 96Q26.86 91.43 22.29 82.86Q22.14 82.71 22 82.43L22 100L15.14 100L15.14 -6L22.29 -6L22.29 42.29Q26.86 34 34.86 29.43Q42.71 24.86 52.57 24.86Q63.14 24.86 71.5 29.64Q79.86 34.43 84.64 42.93Q89.43 51.43 89.43 62.71Q89.43 73.86 84.64 82.43Q79.86 91 71.5 95.79Q63.14 100.57 52.57 100.57ZM52.14 94.14Q60.71 94.14 67.57 90.21Q74.43 86.29 78.36 79.14Q82.29 72 82.29 62.71Q82.29 53.29 78.36 46.21Q74.43 39.14 67.57 35.21Q60.71 31.29 52.14 31.29Q43.57 31.29 36.79 35.21Q30 39.14 26.07 46.21Q22.14 53.29 22.14 62.71Q22.14 72 26.07 79.14Q30 86.29 36.79 90.21Q43.57 94.14 52.14 94.14Z M141.86 100.57Q132.29 100.57 125.29 97.07Q118.29 93.57 114.5 86.5Q110.71 79.43 110.71 69L110.71 25.43L117.86 25.43L117.86 68.43Q117.86 81 124.29 87.57Q130.71 94.14 142.43 94.14Q150.86 94.14 157 90.57Q163.14 87 166.43 80.5Q169.71 74 169.71 65.14L169.71 25.43L176.86 25.43L176.86 100L170 100L170 84.14Q166.71 91.14 160.14 95.43Q152.43 100.57 141.86 100.57Z M207.14 100L207.14 -6L214.29 -6L214.29 69L262 25.43L271.14 25.43L239 55.57L274.29 100L265.43 100L233.71 60.14L214.29 77.86L214.29 100Z M290.43 100L290.43 25.43L297.57 25.43L297.57 100ZM294 7.29Q291.57 7.29 289.86 5.57Q288.14 3.86 288.14 1.57Q288.14 -0.86 289.86 -2.57Q291.57 -4.29 294 -4.29Q296.57 -4.29 298.21 -2.64Q299.86 -1 299.86 1.43Q299.86 3.86 298.21 5.57Q296.57 7.29 294 7.29Z M356.86 100.57Q346.14 100.57 337.79 95.71Q329.43 90.86 324.5 82.29Q319.57 73.71 319.57 62.71Q319.57 51.57 324.5 43.07Q329.43 34.57 337.79 29.71Q346.14 24.86 356.86 24.86Q367.57 24.86 376 29.71Q384.43 34.57 389.29 43.07Q394.14 51.57 394.14 62.71Q394.14 73.71 389.29 82.29Q384.43 90.86 376 95.71Q367.57 100.57 356.86 100.57ZM356.86 94.14Q365.43 94.14 372.29 90.21Q379.14 86.29 383 79.14Q386.86 72 386.86 62.71Q386.86 53.29 383 46.21Q379.14 39.14 372.29 35.21Q365.43 31.29 356.86 31.29Q348.29 31.29 341.5 35.21Q334.71 39.14 330.79 46.21Q326.86 53.29 326.86 62.71Q326.86 72 330.79 79.14Q334.71 86.29 341.5 90.21Q348.29 94.14 356.86 94.14Z"/>
</svg>
