<?xml version="1.0" encoding="UTF-8"?>
<svg xmlns="http://www.w3.org/2000/svg" viewBox="-6 -111.0 1065.7 322" role="img" aria-label="IT-Harvest">
  <title>IT-Harvest</title>
  <defs>
    <linearGradient id="ith-sun" x1="1" y1="0" x2="0" y2="1">
      <stop offset="0" stop-color="#EF5A22"/><stop offset=".55" stop-color="#F79A6B"/><stop offset="1" stop-color="#FFFFFF"/>
    </linearGradient>
  </defs>
  <g transform="translate(0 -105.0) scale(1.0000)">
    <!-- outer orange ring: solid round the left and bottom, dashed up the right -->
    <path d="M226.5 278.8 A143 143 0 0 1 83.5 31.2" fill="none" stroke="#F1531B" stroke-width="14" stroke-linecap="round"/>
    <path d="M278.8 83.5 A143 143 0 0 1 243.0 267.7" fill="none" stroke="#F1531B" stroke-width="14" stroke-linecap="round" stroke-dasharray="16 18"/>
    <!-- green ring, open at the top right -->
    <path d="M263.1 115.7 A115 115 0 1 1 212.5 55.4" fill="none" stroke="#5DBB63" stroke-width="14" stroke-linecap="round"/>
    <!-- thin green sweep over the top right -->
    <path d="M113.6 27.6 A134 134 0 0 1 273.3 92.1" fill="none" stroke="#5DBB63" stroke-width="4" stroke-linecap="round"/>
    <!-- the grain -->
    <circle cx="147" cy="137" r="88" fill="url(#ith-sun)"/>
    <path d="M78 268 Q74 150 116 34" fill="none" stroke="#5DBB63" stroke-width="6" stroke-linecap="round"/><path transform="translate(77.7 239.7) rotate(-141.3)" d="M0 0 Q23 -15 46 0 Q23 15 0 0Z" fill="#5DBB63"/><path transform="translate(77.7 239.7) rotate(-37.3)" d="M0 0 Q23 -15 46 0 Q23 15 0 0Z" fill="#5DBB63"/><path transform="translate(79.4 202.1) rotate(-137.7)" d="M0 0 Q21.5 -15 43 0 Q21.5 15 0 0Z" fill="#5DBB63"/><path transform="translate(79.4 202.1) rotate(-33.7)" d="M0 0 Q21.5 -15 43 0 Q21.5 15 0 0Z" fill="#5DBB63"/><path transform="translate(83.4 164.5) rotate(-134.1)" d="M0 0 Q20 -15 40 0 Q20 15 0 0Z" fill="#5DBB63"/><path transform="translate(83.4 164.5) rotate(-30.1)" d="M0 0 Q20 -15 40 0 Q20 15 0 0Z" fill="#5DBB63"/><path transform="translate(89.8 127.1) rotate(-130.6)" d="M0 0 Q18.5 -15 37 0 Q18.5 15 0 0Z" fill="#5DBB63"/><path transform="translate(89.8 127.1) rotate(-26.6)" d="M0 0 Q18.5 -15 37 0 Q18.5 15 0 0Z" fill="#5DBB63"/><path transform="translate(98.5 89.8) rotate(-127.1)" d="M0 0 Q17 -15 34 0 Q17 15 0 0Z" fill="#5DBB63"/><path transform="translate(98.5 89.8) rotate(-23.1)" d="M0 0 Q17 -15 34 0 Q17 15 0 0Z" fill="#5DBB63"/><path transform="translate(110.3 50.2) rotate(-71.5)" d="M0 0 Q17 -12 34 0 Q17 12 0 0Z" fill="#5DBB63"/>
  </g>
  <g transform="translate(338.9 0)">
    <path fill="#F1531B" d="M41.46 92.54L54.29 94.48L54.29 100L5.15 100L5.15 94.48L17.97 92.54L17.97 7.46L5.15 5.44L5.15 0L54.29 0L54.29 5.44L41.46 7.46Z M82.55 100L82.55 94.56L98.43 92.54L98.43 7.9L94.63 7.9Q77.55 7.9 70.62 9.4L68.61 27.96L61.82 27.96L61.82 0L158.99 0L158.99 27.96L152.13 27.96L150.11 9.4Q143.92 8.05 125.65 8.05L122 8.05L122 92.54L137.88 94.56L137.88 100Z M152.87 70.54L152.87 57.57L192.54 57.57L192.54 70.54Z"/>
    <path fill="#5DBB63" d="M200.75 100L200.75 94.48L213.57 92.54L213.57 7.46L200.75 5.44L200.75 0L249.89 0L249.89 5.44L237.06 7.46L237.06 44.44L277.93 44.44L277.93 7.46L265.1 5.44L265.1 0L314.39 0L314.39 5.44L301.49 7.46L301.49 92.54L314.39 94.48L314.39 100L265.1 100L265.1 94.48L277.93 92.54L277.93 52.65L237.06 52.65L237.06 92.54L249.89 94.48L249.89 100Z M357.64 28.34Q383.97 28.34 383.97 47.73L383.97 93.29L390.98 95.08L390.98 100L365.18 100L363.53 94.63Q357.72 98.58 353.02 100.04Q348.32 101.49 343.55 101.49Q321.85 101.49 321.85 80.61Q321.85 72.71 325.06 67.97Q328.26 63.24 334.3 60.96Q340.34 58.69 353.32 58.39L362.42 58.17L362.42 47.95Q362.42 35.27 352.05 35.27Q345.79 35.27 338.03 39.15L335.2 47.87L330.28 47.87L330.28 30.95Q341.54 29.23 346.83 28.78Q352.13 28.34 357.64 28.34ZM362.42 64.8L356.15 65.03Q348.92 65.32 346.12 68.83Q343.33 72.33 343.33 80.16Q343.33 86.5 345.56 89.49Q347.8 92.47 351.38 92.47Q356.45 92.47 362.42 89.86Z M427.67 44.44Q435.72 35.5 442.1 31.58Q448.47 27.67 453.77 27.67L457.79 27.67L457.79 53.24L453.62 53.24L449.22 43.85Q444.52 43.85 438.55 45.9Q432.59 47.95 428.04 50.71L428.04 93.29L439.3 95.08L439.3 100L397.39 100L397.39 95.08L406.49 93.29L406.49 36.61L397.39 34.82L397.39 29.9L426.85 29.9Z M504.33 101.49L495.3 101.49L466 36.61L461.07 34.82L461.07 29.9L496.94 29.9L496.94 34.82L488.59 36.76L506.56 76.73L522.74 36.61L514.54 34.82L514.54 29.9L537.43 29.9L537.43 34.82L532.36 36.32Z M574.27 28.19Q588.52 28.19 594.89 35.79Q601.27 43.4 601.27 59.43L601.27 65.55L564.5 65.55L564.5 66.74Q564.5 77.85 566.29 82.55Q568.08 87.25 572.11 89.71Q576.14 92.17 583.15 92.17Q589.71 92.17 599.7 90.01L599.7 95.75Q595.6 98.21 589.08 99.81Q582.55 101.42 576.36 101.42Q559.13 101.42 550.89 92.43Q542.65 83.45 542.65 64.58Q542.65 46.23 550.52 37.21Q558.39 28.19 574.27 28.19ZM573.45 35.72Q568.98 35.72 566.78 40.57Q564.58 45.41 564.58 57.72L580.84 57.72Q580.84 47.73 580.16 43.66Q579.49 39.6 577.89 37.66Q576.29 35.72 573.45 35.72Z M660.92 77.78Q660.92 89.49 653.73 95.49Q646.53 101.49 632.81 101.49Q627.14 101.49 620.32 100.26Q613.5 99.03 609.99 97.69L609.99 78.6L614.91 78.6L617.75 88.44Q620.36 91.05 624.61 92.8Q628.86 94.56 633.26 94.56Q639.75 94.56 642.92 91.76Q646.09 88.96 646.09 84.64Q646.09 80.54 643.03 78.08Q639.97 75.62 629.68 72.41Q618.87 69.05 614.35 63.24Q609.84 57.42 609.84 48.92Q609.84 39.37 616.93 33.71Q624.01 28.04 635.2 28.04Q642.88 28.04 655.85 30.2L655.85 48.17L650.93 48.17L648.55 39.97Q646.38 37.81 642.47 36.43Q638.55 35.05 635.05 35.05Q629.68 35.05 627.11 37.25Q624.53 39.45 624.53 43.25Q624.53 47.2 627.74 49.74Q630.95 52.27 640.94 55.26Q651.83 58.61 656.38 64.09Q660.92 69.57 660.92 77.78Z M697.32 101.49Q687.25 101.49 681.77 96.94Q676.29 92.39 676.29 83.82L676.29 37.66L667.11 37.66L667.11 32.81L677.93 29.9L686.65 14.02L697.84 14.02L697.84 29.9L712.6 29.9L712.6 37.66L697.84 37.66L697.84 82.48Q697.84 87.32 699.85 89.78Q701.86 92.24 705.15 92.24Q709.1 92.24 714.84 91.05L714.84 97.39Q712.6 98.96 707.2 100.22Q701.79 101.49 697.32 101.49Z"/>
  </g>
</svg>
